<svg width="252" height="183" viewBox="0 0 252 183" fill="none" xmlns="http://www.w3.org/2000/svg">
    <g clip-path="url(#clip0_253_128270)">
        <path
            d="M179.7 182.2H79.1999C74.3999 182.2 71.1999 178.3 72.0999 173.5L82.0999 118.2C82.9999 113.4 87.4999 109.5 92.2999 109.5H192.8C197.6 109.5 200.8 113.4 199.9 118.2L189.9 173.5C189 178.3 184.4 182.2 179.7 182.2Z"
            fill="url(#paint0_linear_253_128270)" />
        <path d="M188.235 21.5561L147.981 98.0115L211.782 131.603L252.036 55.1475L188.235 21.5561Z" fill="#C8C6C4" />
        <path d="M190.003 27.5341L159.859 84.7871L216.05 114.372L246.194 57.1187L190.003 27.5341Z" fill="#EDEBE9" />
        <path
            d="M208.6 46.9999C203.8 45.4999 198.1 48.8999 195.9 54.6999C194.1 59.6999 198.4 63.3999 196.4 67.4999C194.5 71.5999 188.3 71.7999 187.9 77.0999C187.5 82.3999 190.2 84.3999 186.8 90.4999L193.2 93.8999C193.2 93.8999 193.2 89.7999 196 87.8999C198.8 85.9999 205.3 82.5999 203.8 77.7999C202.4 72.8999 205.3 69.4999 207 68.3999C208.7 67.2999 212 63.6999 213.8 59.5999C215.7 55.3999 213.9 48.6999 208.6 46.9999Z"
            fill="#E8D441" />
        <path
            d="M214.8 62.1C219.3 64.7 219 70.8 216 74.7C213.5 78 208.6 76.6 206.8 79.5C205 82.5 208.1 87.9 204.2 90C200.3 92.1 197.5 91.2 195.8 95.5L190 92.4C190 92.4 192.6 90.8 192.1 88.1C191.5 85.4 191.4 79.3 195.6 78.4C199.8 77.4 200.7 74 200.6 72.4C200.5 70.8 200.2 67.4 203 64.1C205.8 60.8 211.9 60.5 214.8 62.1Z"
            fill="white" />
        <path
            d="M194.4 92.1001C194.4 92.1001 205.6 72.2001 211 67.1001"
            stroke="#E8D441"
            stroke-width="1.7169"
            stroke-miterlimit="10"
            stroke-linecap="round" />
        <path
            d="M201.9 95.5L185.3 86.6999C184.6 86.2999 183.6 86.7999 183.5 87.6999L182.1 96.4L195.8 103.6L202.2 97.5C202.8 97 202.7 95.9 201.9 95.5Z"
            fill="#B3B0AD" />
        <path d="M93.2999 0L180.1 4.6L174.2 116.4L87.3999 111.8L93.2999 0Z" fill="url(#paint1_linear_253_128270)" />
        <path
            d="M154 23.6C153.7 23.1 153.1 22.8 152.5 22.9L142.4 24.2C141.9 24.3 141.4 24.6 141.2 25.1C141 25.6 141 26.2 141.3 26.7L143 29L132 36L126.5 29.1L110.2 39.5L112.4 42.9L125.6 34.5L131.1 41.4L145.4 32.3L147.3 34.8C147.6 35.2 148 35.5 148.5 35.5C148.6 35.5 148.6 35.5 148.7 35.5C149.3 35.4 149.7 35.1 149.9 34.6L154 25C154.3 24.5 154.3 24 154 23.6Z"
            fill="#FAE969" />
        <path
            d="M101.5 86.0999L101.8 81.3999L159.5 84.3999L161.3 36.8999L166 37.1999L163.9 89.3999L101.5 86.0999Z"
            fill="#E1DFDD" />
        <path d="M143.9 45.5L156.1 46.2L154.3 79.2L142.1 78.6L143.9 45.5Z" fill="#E1DFDD" />
        <path d="M125.3 51.7L137.5 52.4L136.1 78.1999L123.9 77.5L125.3 51.7Z" fill="#E1DFDD" />
        <path d="M106.4 62.8999L118.6 63.4999L117.8 77.1999L105.6 76.5999L106.4 62.8999Z" fill="#E1DFDD" />
        <path d="M90.5 42.4001L116.3 118.9L34 146.6L0 45.8L57.9 26.3L90.5 42.4001Z" fill="#E2E2F6" />
        <path d="M90.4999 42.4001L66.1999 50.6L57.8999 26.3L90.4999 42.4001Z" fill="#BDBDE6" />
        <path d="M81.9381 63.7211L50.4844 74.3418L52.0519 78.9841L83.5056 68.3634L81.9381 63.7211Z" fill="#C3C3E1" />
        <path d="M85.9203 75.6129L31.9185 93.8472L33.486 98.4894L87.4878 80.2551L85.9203 75.6129Z" fill="#C3C3E1" />
        <path d="M89.8177 87.4256L35.8159 105.66L37.3834 110.302L91.3852 92.0679L89.8177 87.4256Z" fill="#C3C3E1" />
        <path d="M77.9398 51.9069L46.4861 62.5276L48.0536 67.1698L79.5073 56.5492L77.9398 51.9069Z" fill="#C3C3E1" />
        <path opacity="0.8" d="M40.4 64.6001L45.9 81.1001L29.5 86.5001L24 70.2001L40.4 64.6001Z" fill="#E8D441" />
        <path
            d="M179.7 182.2H79.2001C74.4001 182.2 69.9001 178.3 69.1001 173.6L59.9001 118.4C59.1001 113.6 62.3001 109.8 67.1001 109.8H167.6C172.4 109.8 176.9 113.7 177.7 118.4L186.9 173.6C187.7 178.4 184.4 182.2 179.7 182.2Z"
            fill="#A6A7DC" />
        <path
            d="M89.2001 114.4L60.1001 119.9L57.8001 106.1C57.0001 101.5 60.1001 97.8 64.7001 97.8H78.1001C82.7001 97.8 87.0001 101.5 87.8001 106.1L89.2001 114.4Z"
            fill="#A6A7DC" />
    </g>
    <defs>
        <linearGradient
            id="paint0_linear_253_128270"
            x1="136.013"
            y1="187.152"
            x2="136.013"
            y2="115.952"
            gradientUnits="userSpaceOnUse">
            <stop stop-color="#6264A7" />
            <stop offset="1" stop-color="#8B8CC7" />
        </linearGradient>
        <linearGradient
            id="paint1_linear_253_128270"
            x1="89.5922"
            y1="75.069"
            x2="119.853"
            y2="63.4989"
            gradientUnits="userSpaceOnUse">
            <stop stop-color="#E1DFDD" />
            <stop offset="0.2108" stop-color="#EAE8E7" />
            <stop offset="0.62" stop-color="#F6F5F4" />
            <stop offset="1" stop-color="#FAF9F8" />
        </linearGradient>
        <clipPath id="clip0_253_128270">
            <rect width="252" height="182.2" fill="white" />
        </clipPath>
    </defs>
</svg>
