<svg width="200" height="172" viewBox="0 0 200 172" fill="none" xmlns="http://www.w3.org/2000/svg">
    <g opacity="0.6">
        <path
            opacity="0.6"
            d="M184.668 164.811C153.125 164.811 121.581 164.811 90.0386 164.811C117.142 123.464 78.268 82.1186 105.371 40.7726C136.914 40.7726 168.457 40.7726 200 40.7725C172.897 82.1185 211.771 123.464 184.668 164.811Z"
            fill="url(#paint0_linear_461_120175)" />
    </g>
    <path
        d="M158.753 168.503C123.133 168.503 87.5124 168.503 51.8918 168.503C80.8325 122.547 41.8581 76.591 70.7992 30.6348C106.42 30.6348 142.04 30.6348 177.661 30.6348C148.72 76.591 187.694 122.547 158.753 168.503Z"
        fill="url(#paint1_linear_461_120175)" />
    <path
        d="M132.464 171.999C96.8437 171.999 61.2231 171.999 25.6028 171.999C52.5659 124.012 9.12267 76.0257 36.0856 28.0391C71.7057 28.0391 107.327 28.0391 142.947 28.0391C115.984 76.0259 159.427 124.013 132.464 171.999Z"
        fill="url(#paint2_linear_461_120175)" />
    <g opacity="0.4">
        <path
            opacity="0.4"
            d="M50.8045 140.976C49.9807 140.976 49.3029 140.318 49.2824 139.49C49.2615 138.649 49.926 137.95 50.7674 137.929C56.0311 137.797 59.5119 134.818 59.852 130.153C59.9638 128.622 59.8953 127.343 59.6974 126.264C56.1828 127.11 52.9721 126.65 51.0262 124.996C48.4762 122.829 48.5261 120.21 49.7067 118.575C50.9839 116.806 53.8573 115.848 56.6642 117.557C58.0745 118.414 60.2002 119.707 61.582 122.389C64.2195 121.149 66.2472 119.145 66.9916 116.933C67.4825 115.475 67.453 113.913 66.9041 112.29C66.6344 111.494 67.0616 110.629 67.8588 110.359C68.6574 110.088 69.5212 110.517 69.7904 111.314C70.5581 113.582 70.5886 115.8 69.8798 117.905C68.6788 121.475 65.6341 123.906 62.5999 125.269C62.9105 126.691 63.037 128.374 62.8915 130.373C62.4344 136.643 57.7054 140.804 50.8435 140.975C50.8307 140.975 50.8178 140.976 50.8045 140.976ZM53.6043 119.712C52.974 119.712 52.456 119.973 52.1773 120.359C51.7245 120.986 52.0317 121.852 52.9997 122.674C54.1156 123.623 56.2774 123.878 58.6486 123.376C57.6588 121.729 56.2551 120.875 55.0807 120.16C54.5617 119.845 54.0542 119.712 53.6043 119.712Z"
            fill="#BDBDE6" />
    </g>
    <path opacity="0.1" d="M72.8866 47.4639H13.7881V91.0856H72.8866V47.4639Z" fill="#33312D" />
    <path
        opacity="0.1"
        d="M29.344 91.0856H72.8867V47.4639H28.6796C25.4899 62.0044 27.0115 76.545 29.344 91.0856Z"
        fill="#33312D" />
    <path d="M68.9901 43.5674H9.8916V87.1891H68.9901V43.5674Z" fill="#FFE5B9" />
    <path
        opacity="0.1"
        d="M139.427 4.27246H112.516C101.971 4.27246 93.4233 12.8204 93.4233 23.3647V33.229C93.4233 40.4893 97.4767 46.8019 103.443 50.0305V57.681C103.443 60.2503 106.52 61.5692 108.381 59.7973L116.232 52.3212H139.427C149.972 52.3212 158.519 43.7733 158.519 33.229V23.3647C158.519 12.8204 149.972 4.27246 139.427 4.27246Z"
        fill="#33312D" />
    <path
        d="M135.531 48.4247H108.619C98.0745 48.4247 89.5266 39.8768 89.5266 29.3325V19.4682C89.5266 8.92385 98.0745 0.375977 108.619 0.375977H135.531C146.075 0.375977 154.623 8.92385 154.623 19.4682V29.3325C154.623 39.8768 146.075 48.4247 135.531 48.4247Z"
        fill="white" />
    <path d="M134.342 15.292H106.132V21.0395H134.342V15.292Z" fill="#FFE5B9" />
    <path d="M138.017 27.7607H106.132V33.5082H138.017V27.7607Z" fill="#FFE5B9" />
    <path d="M156.443 94.79H85.771V143.888H156.443V94.79Z" fill="#E2E2F6" />
    <path
        d="M147.413 146.404L119.7 118.389C119.012 117.682 117.922 117.7 117.195 118.541L94.8005 147.269L147.413 146.404Z"
        fill="#BDBDE6" />
    <path
        d="M160.909 145.808L160.893 134.777L140.271 110.913C139.736 110.224 138.8 110.262 138.245 110.969L113.841 145.815L160.909 145.808Z"
        fill="#BDBDE6" />
    <path
        d="M104.738 119.337C109.164 119.337 112.752 115.749 112.752 111.323C112.752 106.896 109.164 103.308 104.738 103.308C100.311 103.308 96.7227 106.896 96.7227 111.323C96.7227 115.749 100.311 119.337 104.738 119.337Z"
        fill="white" />
    <path d="M97.4769 126.304L89.2317 143.78L107.413 143.728L97.4769 126.304Z" fill="#8B8CC7" />
    <path d="M148.829 130.745L140.98 141.893L157.694 141.84L148.829 130.745Z" fill="#8B8CC7" />
    <path d="M106.509 132.24L97.9517 143.307L115 143.331L106.509 132.24Z" fill="#8B8CC7" />
    <path
        d="M153.913 97.7249L153.844 140.434L90.3899 140.474L90.4589 97.7645L153.913 97.7249ZM161.262 90.3672L82.9436 90.4061L82.8882 147.812L161.206 147.773L161.262 90.3672Z"
        fill="white" />
    <path
        d="M40.63 141.441L1.38618 129.604C0.356008 129.293 -0.227211 128.206 0.0835205 127.176L2.10443 120.476C2.41516 119.446 3.50217 118.863 4.53234 119.173L43.7762 131.011C44.5384 131.24 45.2456 131.624 45.8544 132.137L51.9956 137.311C53.3023 138.412 52.6599 140.542 50.9624 140.736L42.9843 141.652C42.1933 141.743 41.3922 141.671 40.63 141.441Z"
        fill="#A6A7DC" />
    <g opacity="0.8">
        <g opacity="0.8">
            <path
                opacity="0.8"
                d="M29.5827 73.5571L21.4033 65.3776L29.5827 57.1982L33.0265 60.642L28.2908 65.3776L33.0265 70.1133L29.5827 73.5571Z"
                fill="#F7B548" />
        </g>
        <g opacity="0.8">
            <path
                opacity="0.8"
                d="M49.2987 73.5571L45.855 70.1133L50.5906 65.3776L45.855 60.642L49.2987 57.1982L57.4781 65.3776L49.2987 73.5571Z"
                fill="#F7B548" />
        </g>
    </g>
    <path
        opacity="0.8"
        d="M39.4408 69.1453C41.5213 69.1453 43.2078 67.4588 43.2078 65.3783C43.2078 63.2979 41.5213 61.6113 39.4408 61.6113C37.3604 61.6113 35.6738 63.2979 35.6738 65.3783C35.6738 67.4588 37.3604 69.1453 39.4408 69.1453Z"
        fill="#F7B548" />
    <path
        d="M99.5466 53.784V42.502H118.554L104.484 55.9004C102.624 57.6722 99.5466 56.3533 99.5466 53.784Z"
        fill="white" />
    <defs>
        <linearGradient
            id="paint0_linear_461_120175"
            x1="139.6"
            y1="102.846"
            x2="184.263"
            y2="96.2446"
            gradientUnits="userSpaceOnUse">
            <stop stop-color="#B3B0AD" />
            <stop offset="1" stop-color="#C8C6C4" />
        </linearGradient>
        <linearGradient
            id="paint1_linear_461_120175"
            x1="48.1726"
            y1="99.5691"
            x2="180.993"
            y2="92.4029"
            gradientUnits="userSpaceOnUse">
            <stop stop-color="#BDBDE6" />
            <stop offset="1" stop-color="#E2E2F6" />
        </linearGradient>
        <linearGradient
            id="paint2_linear_461_120175"
            x1="84.2747"
            y1="13.37"
            x2="84.2747"
            y2="163.929"
            gradientUnits="userSpaceOnUse">
            <stop stop-color="#E1DFDD" />
            <stop offset="1" stop-color="#F3F2F1" />
        </linearGradient>
    </defs>
</svg>
