<svg width="200" height="200" viewBox="0 0 200 200" fill="none" xmlns="http://www.w3.org/2000/svg">
    <path
        d="M93.3636 200.001C142.384 200.001 182.123 161.613 182.123 114.258C182.123 66.9039 142.384 28.5156 93.3636 28.5156C44.3433 28.5156 4.60449 66.9039 4.60449 114.258C4.60449 161.613 44.3433 200.001 93.3636 200.001Z"
        fill="#F3F2F1" />
    <path
        d="M93.9673 199.985C98.7154 199.955 103.372 199.558 107.915 198.834V87.5742H93.9673V199.985Z"
        fill="#B3B0AD" />
    <path d="M103.022 199.486C107.765 198.99 112.39 198.124 116.878 196.935V87.5742H103.022V199.486Z" fill="#C8C6C4" />
    <path
        d="M30.939 136.573V83.5963C30.939 63.1053 47.5502 46.4941 68.0411 46.4941H145.021C165.512 46.4941 182.123 63.1053 182.123 83.5963V136.573H30.939Z"
        fill="url(#paint0_linear_3756_123962)" />
    <path
        d="M66.7903 46.4941C47.0608 46.4941 31.0518 62.5032 31.0518 82.2326V143.901H102.529V82.2326C102.529 62.5031 86.5198 46.4941 66.7903 46.4941Z"
        fill="#BDBDE6" />
    <path
        opacity="0.8"
        d="M66.7902 58.0215C81.4131 58.0215 93.2644 69.8728 93.2644 84.4957V140.871H40.3159V84.4957C40.3159 69.8728 52.1672 58.0215 66.7902 58.0215Z"
        fill="url(#paint1_linear_3756_123962)" />
    <path d="M142.142 115.911L149.471 105.99H125.231V125.72H149.471L142.142 115.911Z" fill="#FFD590" />
    <path
        d="M123.102 85.4121C125.244 85.4121 126.935 86.8896 126.935 88.7611V128.457C126.935 130.329 125.244 131.806 123.102 131.806C120.96 131.806 119.269 130.329 119.269 128.457V88.7611C119.269 86.8896 120.96 85.4121 123.102 85.4121Z"
        fill="#979593" />
    <path
        d="M123.102 94.6572C128.207 94.6572 132.346 90.5183 132.346 85.4126C132.346 80.3069 128.207 76.168 123.102 76.168C117.996 76.168 113.857 80.3069 113.857 85.4126C113.857 90.5183 117.996 94.6572 123.102 94.6572Z"
        fill="#E1DFDD" />
    <path
        d="M70.7108 46.1731C70.7108 46.1731 67.2104 45.2698 65.2717 47.6141C63.3331 49.9585 64.7816 54.0562 64.7816 54.0562"
        stroke="#9B643D"
        stroke-width="2"
        stroke-miterlimit="10"
        stroke-linecap="round" />
    <path
        d="M68.1117 46.1731C68.1117 46.1731 64.6113 45.2698 62.6726 47.6141C60.734 49.9585 62.1825 54.0562 62.1825 54.0562"
        stroke="#9B643D"
        stroke-width="2"
        stroke-miterlimit="10"
        stroke-linecap="round" />
    <path
        d="M65.7504 46.1731C65.7504 46.1731 62.25 45.2698 60.3113 47.6141C58.3726 49.9585 59.8212 54.0562 59.8212 54.0562"
        stroke="#9B643D"
        stroke-width="2"
        stroke-miterlimit="10"
        stroke-linecap="round" />
    <path
        d="M62.1185 46.4719C62.1185 46.4719 58.6181 45.5686 56.6795 47.913C54.7408 50.2574 56.1894 54.3551 56.1894 54.3551"
        stroke="#9B643D"
        stroke-width="2"
        stroke-miterlimit="10"
        stroke-linecap="round" />
    <path
        d="M64.2621 46.0041L52.6167 41.8496"
        stroke="#9B643D"
        stroke-width="2"
        stroke-miterlimit="10"
        stroke-linecap="round" />
    <path d="M32.0581 79.2656L35.6901 86.7853L27.3589 87.2763L32.0581 79.2656Z" fill="#9B643D" />
    <path d="M49.0026 29.9418L70.8188 0H54.5271L43.2656 18.5294L49.0026 29.9418Z" fill="#FFD590" />
    <path
        d="M43.3049 18.4766L11.3884 62.85C5.30573 70.3032 4.78144 77.4258 7.41336 82.6528C10.811 89.4005 19.0068 91.1158 25.3675 88.4064C30.6702 86.0316 33.0361 80.6271 31.7194 74.9899C32.9676 74.5541 44.8875 71.9437 52.6333 61.9754C65.6976 45.1626 43.3049 18.4766 43.3049 18.4766Z"
        fill="#FFD590" />
    <path
        d="M24.7295 79.8821C25.5945 78.439 25.655 76.885 24.8645 76.4112C24.0741 75.9374 22.732 76.7232 21.867 78.1663C21.002 79.6094 20.9416 81.1634 21.732 81.6372C22.5225 82.111 23.8645 81.3252 24.7295 79.8821Z"
        fill="black" />
    <path
        d="M52.5039 53.1045C51.9044 58.5158 47.6115 66.3829 37.692 64.9413C32.5257 64.1213 25.661 56.5081 33.0552 46.2384C35.587 42.6797 44.5828 29.8594 44.5828 29.8594C44.5828 29.8594 53.727 42.0662 52.5039 53.1045Z"
        fill="#F7B548" />
    <path
        d="M189.074 151.361H10.9263C6.86265 151.361 3.56836 148.05 3.56836 143.967C3.56836 139.883 6.86265 136.572 10.9263 136.572H189.074C193.138 136.572 196.432 139.883 196.432 143.967C196.432 148.05 193.138 151.361 189.074 151.361Z"
        fill="#BDBDE6" />
    <defs>
        <linearGradient
            id="paint0_linear_3756_123962"
            x1="106.531"
            y1="135.186"
            x2="106.531"
            y2="103.919"
            gradientUnits="userSpaceOnUse">
            <stop stop-color="#A6A7DC" />
            <stop offset="1" stop-color="#BDBDE6" />
        </linearGradient>
        <linearGradient
            id="paint1_linear_3756_123962"
            x1="66.7902"
            y1="145.707"
            x2="66.7902"
            y2="73.3628"
            gradientUnits="userSpaceOnUse">
            <stop stop-color="#6264A7" />
            <stop offset="1" stop-color="#8B8CC7" />
        </linearGradient>
    </defs>
</svg>
