<svg width="200" height="200" viewBox="0 0 200 200" fill="none" xmlns="http://www.w3.org/2000/svg">
    <path
        d="M93.3636 199.999C142.384 199.999 182.123 161.611 182.123 114.257C182.123 66.9025 142.384 28.5142 93.3636 28.5142C44.3433 28.5142 4.60449 66.9025 4.60449 114.257C4.60449 161.611 44.3433 199.999 93.3636 199.999Z"
        fill="#F3F2F1" />
    <path
        d="M93.9674 199.985C98.7156 199.954 103.372 199.557 107.915 198.833V87.5736H93.9674V199.985Z"
        fill="#B3B0AD" />
    <path d="M103.022 199.485C107.765 198.989 112.39 198.123 116.878 196.935V87.5736H103.022V199.485Z" fill="#C8C6C4" />
    <path
        d="M30.9388 136.572V83.5949C30.9388 63.104 47.55 46.4928 68.041 46.4928H145.021C165.512 46.4928 182.123 63.104 182.123 83.5949V136.572H30.9388Z"
        fill="url(#paint0_linear_6065_30907)" />
    <path
        d="M66.7901 46.4928C47.0606 46.4928 31.0515 62.5019 31.0515 82.2313V143.9H102.529V82.2313C102.529 62.5018 86.5196 46.4928 66.7901 46.4928Z"
        fill="#BDBDE6" />
    <path
        opacity="0.8"
        d="M66.7902 58.0205C81.4131 58.0205 93.2644 69.8718 93.2644 84.4948V140.87H40.3159V84.4947C40.3159 69.8718 52.1672 58.0205 66.7902 58.0205Z"
        fill="url(#paint1_linear_6065_30907)" />
    <path d="M142.143 115.91L149.471 105.989H125.232V125.719H149.471L142.143 115.91Z" fill="#FFD590" />
    <path
        d="M123.102 85.4124C125.244 85.4124 126.935 86.8898 126.935 88.7613V128.458C126.935 130.329 125.244 131.806 123.102 131.806C120.96 131.806 119.268 130.329 119.268 128.458V88.7613C119.268 86.8898 120.96 85.4124 123.102 85.4124Z"
        fill="#979593" />
    <path
        d="M123.102 94.6569C128.207 94.6569 132.346 90.5179 132.346 85.4122C132.346 80.3066 128.207 76.1676 123.102 76.1676C117.996 76.1676 113.857 80.3066 113.857 85.4122C113.857 90.5179 117.996 94.6569 123.102 94.6569Z"
        fill="#E1DFDD" />
    <path
        d="M70.7108 46.1722C70.7108 46.1722 67.2104 45.2689 65.2717 47.6133C63.3331 49.9577 64.7816 54.0554 64.7816 54.0554"
        stroke="#9B643D"
        stroke-width="2"
        stroke-miterlimit="10"
        stroke-linecap="round" />
    <path
        d="M68.1116 46.1722C68.1116 46.1722 64.6112 45.2689 62.6725 47.6133C60.7338 49.9577 62.1824 54.0554 62.1824 54.0554"
        stroke="#9B643D"
        stroke-width="2"
        stroke-miterlimit="10"
        stroke-linecap="round" />
    <path
        d="M65.75 46.1722C65.75 46.1722 62.2496 45.2689 60.3109 47.6133C58.3723 49.9577 59.8208 54.0554 59.8208 54.0554"
        stroke="#9B643D"
        stroke-width="2"
        stroke-miterlimit="10"
        stroke-linecap="round" />
    <path
        d="M62.1182 46.4721C62.1182 46.4721 58.6178 45.5688 56.6791 47.9132C54.7404 50.2576 56.189 54.3553 56.189 54.3553"
        stroke="#9B643D"
        stroke-width="2"
        stroke-miterlimit="10"
        stroke-linecap="round" />
    <path
        d="M64.2618 46.0028L52.6163 41.8484"
        stroke="#9B643D"
        stroke-width="2"
        stroke-miterlimit="10"
        stroke-linecap="round" />
    <path d="M32.058 79.2642L35.69 86.7838L27.3588 87.2748L32.058 79.2642Z" fill="#9B643D" />
    <path d="M49.0026 29.9413L70.8188 -0.000488281H54.5271L43.2656 18.5289L49.0026 29.9413Z" fill="#FFD590" />
    <path
        d="M43.3046 18.4768L11.3882 62.8502C5.30548 70.3035 4.7812 77.4261 7.41312 82.6531C10.8107 89.4007 19.0065 91.116 25.3673 88.4066C30.67 86.0318 33.0358 80.6273 31.7192 74.9902C32.9673 74.5544 44.8873 71.9439 52.633 61.9757C65.6973 45.1628 43.3046 18.4768 43.3046 18.4768Z"
        fill="#FFD590" />
    <path
        d="M24.7295 79.8811C25.5945 78.438 25.655 76.8841 24.8645 76.4102C24.0741 75.9364 22.732 76.7222 21.867 78.1653C21.002 79.6084 20.9416 81.1624 21.732 81.6362C22.5225 82.11 23.8645 81.3242 24.7295 79.8811Z"
        fill="black" />
    <path
        d="M52.5037 53.1041C51.9041 58.5155 47.6112 66.3826 37.6918 64.9409C32.5255 64.121 25.6608 56.5077 33.055 46.238C35.5868 42.6793 44.5826 29.859 44.5826 29.859C44.5826 29.859 53.7267 42.0658 52.5037 53.1041Z"
        fill="#F7B548" />
    <path
        d="M189.074 151.361H10.9263C6.86265 151.361 3.56836 148.05 3.56836 143.966C3.56836 139.882 6.86265 136.572 10.9263 136.572H189.074C193.138 136.572 196.432 139.882 196.432 143.966C196.432 148.05 193.138 151.361 189.074 151.361Z"
        fill="#BDBDE6" />
    <defs>
        <linearGradient
            id="paint0_linear_6065_30907"
            x1="106.531"
            y1="135.185"
            x2="106.531"
            y2="103.918"
            gradientUnits="userSpaceOnUse">
            <stop stop-color="#A6A7DC" />
            <stop offset="1" stop-color="#BDBDE6" />
        </linearGradient>
        <linearGradient
            id="paint1_linear_6065_30907"
            x1="66.7902"
            y1="145.706"
            x2="66.7902"
            y2="73.3619"
            gradientUnits="userSpaceOnUse">
            <stop stop-color="#6264A7" />
            <stop offset="1" stop-color="#8B8CC7" />
        </linearGradient>
    </defs>
</svg>
