<svg width="200" height="201" viewBox="0 0 200 201" fill="none" xmlns="http://www.w3.org/2000/svg">
    <path
        d="M115.349 200.496C158.918 200.496 194.238 165.176 194.238 121.607C194.238 78.0367 158.918 42.7166 115.349 42.7166C71.7792 42.7166 36.459 78.0367 36.459 121.607C36.459 165.176 71.7792 200.496 115.349 200.496Z"
        fill="#C3C3E1" />
    <path
        d="M179.856 97.9094C176.77 111.817 163.346 120.667 149.873 117.677C136.399 114.688 129.768 101.27 131.064 87.083C132.492 71.4555 145.548 63.582 161.048 67.3148C174.465 70.5461 182.942 84.0021 179.856 97.9094Z"
        fill="#33312D" />
    <path
        d="M112.017 154.505C130.395 162.937 118.582 181.966 100.685 167.752C86.1284 156.191 81.2268 140.938 85.378 111.373C86.5882 109.664 88.119 111.843 90.1326 111.4C90.2257 133.354 100.349 149.153 112.017 154.505Z"
        fill="#9B643D" />
    <path
        d="M127.988 143.86C142.492 131.946 155.991 138.162 158.55 150.072C168.261 195.282 111.929 197.732 97.4255 183.746C82.9216 169.76 82.9216 154.738 82.9216 146.581C82.8835 146.286 88.1015 138.162 92.9888 129.316C99.6634 148.405 111.78 157.173 127.988 143.86Z"
        fill="url(#paint0_linear_4777_274775)" />
    <path
        d="M75.549 94.3041C77.0228 97.0137 76.7315 97.9954 78.5803 102.703C79.7231 105.657 81.4917 111.275 85.3685 113.234L88.6195 114.852L90.1735 111.744C90.089 110.574 89.996 108.738 89.7762 107.672C88.448 101.012 85.0798 96.2613 85.0738 96.2449C84.479 95.576 83.4482 95.8967 83.387 96.8697C83.3638 97.4765 83.5904 99.7071 83.818 101.387C83.8818 101.855 83.2741 102.092 83.0018 101.705C81.0513 98.9374 79.3723 94.5875 77.2624 92.5889C75.9937 91.5545 74.1381 92.7494 75.549 94.3041Z"
        fill="#9B643D" />
    <path
        d="M25.8378 112.755L73.4813 94.1987C74.6906 93.7273 75.2887 92.3655 74.8181 91.1571L52.1826 33.0402C51.7117 31.8311 50.3499 31.2328 49.1409 31.7036L1.49728 50.26C0.288305 50.7309 -0.310105 52.0927 0.160832 53.3017L22.7962 111.418C23.267 112.628 24.6288 113.226 25.8378 112.755Z"
        fill="#B3AFAB" />
    <path d="M68.9616 91.0915L27.0698 107.407L6.02295 53.3657L47.9151 37.0504L68.9616 91.0915Z" fill="white" />
    <path
        d="M18.4769 48.1768L35.225 41.6538L31.6388 32.4463C31.1678 31.2373 29.8061 30.6389 28.5971 31.1098L16.2273 35.9275C15.0182 36.3985 14.4199 37.7602 14.8908 38.9693L18.4769 48.1768Z"
        fill="#F7B548" />
    <path
        d="M18.4769 48.1768L35.225 41.6538L31.6388 32.4463C31.1678 31.2373 29.8061 30.6389 28.5971 31.1098L16.2273 35.9275C15.0182 36.3985 14.4199 37.7602 14.8908 38.9693L18.4769 48.1768Z"
        fill="url(#paint1_linear_4777_274775)" />
    <path
        d="M19.5594 55.0679L39.0891 47.4615C40.2981 46.9905 40.8965 45.6287 40.4256 44.4198L37.2732 36.3259L13.3652 45.6376L16.5176 53.7314C16.9886 54.9404 18.3504 55.5388 19.5594 55.0679Z"
        fill="#EE8F94" />
    <path
        d="M102.02 90.8118C88.7108 98.8417 75.4403 106.824 62.2111 114.76C49.108 101.027 37.28 83.305 31.9307 63.6056C44.2978 56.3328 58.7325 49.3043 71.2084 41.9739C77.5355 61.1546 88.1988 77.9226 102.02 90.8118Z"
        fill="#F7C6C8" />
    <path
        d="M48.8446 72.3088C47.9694 72.8236 47.0971 73.3363 46.2233 73.8501C45.7636 74.1201 45.2187 73.9225 44.9968 73.4146C44.577 72.4373 44.1687 71.4525 43.7719 70.4615C43.5643 69.9435 43.7676 69.3063 44.2203 69.0397C45.0886 68.5295 45.957 68.0193 46.8266 67.5086C47.2804 67.2444 47.8153 67.4462 48.0248 67.9627C48.4274 68.9506 48.8405 69.932 49.2658 70.9051C49.4872 71.4116 49.3015 72.0429 48.8446 72.3088Z"
        fill="#EE8F94" />
    <path
        d="M55.1834 83.4447C54.2991 83.9656 53.4148 84.4865 52.5305 85.0076C52.0711 85.2795 51.4798 85.1118 51.2273 84.626C50.7351 83.6993 50.2542 82.7643 49.7841 81.8216C49.5401 81.3281 49.712 80.7094 50.1738 80.4395C51.0523 79.9228 51.9323 79.4042 52.8106 78.8873C53.2734 78.6145 53.8388 78.7976 54.0888 79.2885C54.5637 80.2276 55.0506 81.1589 55.5462 82.0816C55.8031 82.5638 55.6462 83.1714 55.1834 83.4447Z"
        fill="#EE8F94" />
    <path
        d="M61.8482 94.2986C60.9544 94.8279 60.0607 95.3562 59.1669 95.8845C58.7015 96.1604 58.0783 96.0199 57.7887 95.5622C57.2276 94.6908 56.6777 93.8091 56.1391 92.9192C55.8529 92.4578 56.0106 91.855 56.4718 91.5803C57.3604 91.0555 58.2498 90.5306 59.1393 90.0052C59.6021 89.7293 60.2124 89.8842 60.4916 90.3486C61.0363 91.2346 61.5914 92.1116 62.1559 92.9797C62.4524 93.4343 62.3154 94.0204 61.8482 94.2986Z"
        fill="#EE8F94" />
    <path
        d="M68.9859 59.5139C63.8913 62.2249 58.8052 64.9301 53.7278 67.6301C53.3072 67.8531 52.7987 67.6181 52.5953 67.1024C52.5962 67.1027 52.5962 67.1027 52.5953 67.1024C52.3954 66.5871 52.5703 65.9853 52.9909 65.7627C58.0571 63.0693 63.1319 60.3703 68.2136 57.6675C68.6351 57.4462 69.1505 57.6767 69.3591 58.1868C69.3591 58.1862 69.3591 58.1862 69.3591 58.1868C69.5746 58.6966 69.4099 59.2883 68.9859 59.5139Z"
        fill="#EE8F94" />
    <path
        d="M75.0028 70.8062C69.8495 73.5572 64.7032 76.3027 59.5655 79.0419C59.1449 79.2693 58.5993 79.0544 58.3631 78.5604C58.1209 78.0686 58.2804 77.4814 58.7044 77.2552C63.8301 74.5235 68.9644 71.7866 74.1073 69.0438C74.5305 68.8198 75.0786 69.0279 75.3234 69.5157C75.3234 69.5159 75.3234 69.5159 75.3234 69.5157C75.5682 70.0028 75.4294 70.5763 75.0028 70.8062Z"
        fill="#EE8F94" />
    <path
        d="M81.3124 81.8413C76.1031 84.6372 70.9016 87.4263 65.707 90.2084C65.2786 90.4372 64.7072 90.2474 64.4357 89.7788C64.4357 89.7789 64.4357 89.7789 64.4357 89.7788C64.1642 89.3132 64.2986 88.7403 64.7253 88.5115C69.9096 85.7368 75.0999 82.9571 80.2996 80.1707C80.728 79.9405 81.302 80.13 81.5839 80.5897C81.583 80.59 81.583 80.59 81.5839 80.5897C81.864 81.0504 81.7433 81.6078 81.3124 81.8413Z"
        fill="#EE8F94" />
    <path
        d="M76.2465 93.7758C77.4454 96.4283 77.0955 97.3281 78.509 101.888C78.5469 102.013 79.2373 104.356 79.2838 104.489C80.9887 103.506 81.9117 102.909 83.208 102.137C83.1839 102.109 82.8081 101.36 82.7909 101.332C81.155 98.5934 79.8191 94.3091 77.9798 92.2803C76.8602 91.2182 75.0261 92.2136 76.2465 93.7758Z"
        fill="#EE8F94" />
    <path
        d="M83.8902 101.726C83.7058 100.041 83.1033 96.3318 83.143 95.7259C83.2292 94.7545 84.2677 94.4606 84.8452 95.1449C84.8478 95.1536 86.1294 97.6384 87.1439 99.8647L83.8902 101.726Z"
        fill="#9B643D" />
    <path
        d="M135.041 141.233L134.071 134.714C133.812 133.477 134.531 132.572 135.817 132.518L141.65 132.27L135.041 141.233Z"
        fill="#AD4C51" />
    <path
        d="M152.259 129.165C136.85 129.061 124.057 143.614 123.934 162.005C123.829 177.817 132.974 191.105 145.33 194.594C159.02 188.964 170.776 179.597 179.329 167.761C179.58 166.009 179.722 164.213 179.734 162.379C179.857 143.986 167.668 129.267 152.259 129.165Z"
        fill="url(#paint2_radial_4777_274775)" />
    <path
        d="M135.041 141.506L139.742 134.748C140.561 133.464 142.036 132.527 143.322 132.473L138.65 132.671C137.317 133.47 135.456 135.22 134.307 136.568L135.041 141.506Z"
        fill="#9B643D" />
    <path
        d="M124.697 170.025L127.987 183.807C129.198 188.878 129.517 194.147 129.005 199.315C148.531 195.907 165.59 185.323 177.361 170.377L124.697 170.025Z"
        fill="url(#paint3_radial_4777_274775)" />
    <path
        d="M181.044 165.291C179.658 151.603 176.107 140.951 166.369 136.654C154.505 131.419 143.33 145.929 150.129 158.799C155.383 168.745 157.39 175.571 159.832 186.763C168.205 181.036 175.417 173.737 181.044 165.291Z"
        fill="#EE8F94" />
    <path
        d="M160.178 123.882C160.361 118.239 160.831 108.062 160.761 101.55C155.551 102.571 150.265 103.8 145.064 105.073C144.739 110.875 144.838 119.207 144.479 124.408C144.118 129.609 140.813 130.422 137.856 133.449C146.855 133.164 156.096 132.836 165.103 133.004C161.383 130.213 159.993 129.628 160.178 123.882Z"
        fill="url(#paint4_radial_4777_274775)" />
    <path
        d="M199.456 77.3526C201.81 67.8758 196.309 58.4246 187.169 56.2426C178.028 54.0607 168.71 59.9742 166.356 69.451C164.002 78.9277 169.503 88.379 178.643 90.561C187.784 92.7429 197.102 86.8293 199.456 77.3526Z"
        fill="#33312D" />
    <path
        d="M147.635 89.1753L136.137 86.6241L131.516 107.452L143.013 110.003L147.635 89.1753Z"
        fill="url(#paint5_radial_4777_274775)" />
    <path
        d="M152.802 112.855C152.426 113.574 151.922 114.066 151.275 114.474C150.639 114.877 149.864 115.116 149.074 115.15C148.289 115.187 147.479 115.035 146.817 114.673C146.14 114.333 145.599 113.822 145.23 113.206C145.005 112.832 145.127 112.347 145.501 112.123C145.653 112.032 145.823 111.998 145.986 112.015L146.097 112.026C146.723 112.089 147.214 112.221 147.683 112.272C148.143 112.366 148.558 112.357 148.972 112.377C149.388 112.38 149.808 112.324 150.272 112.232C150.723 112.144 151.241 111.961 151.733 111.842L151.967 111.786C152.367 111.689 152.769 111.935 152.866 112.336C152.91 112.517 152.882 112.701 152.802 112.855Z"
        fill="#9A6541" />
    <path
        d="M139.688 95.758C140.056 94.101 139.634 92.5979 138.745 92.4007C137.857 92.2036 136.838 93.387 136.471 95.044C136.103 96.701 136.525 98.2041 137.414 98.4012C138.302 98.5984 139.321 97.4149 139.688 95.758Z"
        fill="#3A312E" />
    <path
        d="M155.246 99.298C155.613 97.641 155.19 96.138 154.302 95.9408C153.413 95.7436 152.395 96.927 152.027 98.584C151.659 100.241 152.083 101.744 152.971 101.941C153.86 102.138 154.878 100.955 155.246 99.298Z"
        fill="#3A312E" />
    <path
        d="M140.423 101.813C140.088 103.152 143.119 105.544 143.512 107.755C147.857 104.637 147.42 92.332 147.42 92.332C147.42 92.332 145.73 96.7352 143.751 98.6721C142.067 100.321 140.759 100.473 140.423 101.813Z"
        fill="#BE906B" />
    <path
        d="M150.667 75.5117C140.361 73.2251 134.838 75.5061 132.229 87.2683C129.325 100.354 124.338 114.114 135.245 117.83C148.843 122.464 158.664 108.968 161.567 95.882C163.854 85.577 160.972 77.7983 150.667 75.5117Z"
        fill="#9B643D" />
    <path
        d="M124.527 98.2854C124.142 100.022 128.525 102.305 128.918 104.516C133.263 101.398 131.862 88.8795 131.862 88.8795C131.862 88.8795 130.704 92.5345 127.855 95.1447C126.117 96.7368 124.826 96.9374 124.527 98.2854Z"
        fill="#9B643D" />
    <path
        d="M139.396 108.383C139.246 109.248 138.893 109.89 138.345 110.503C137.812 111.107 137.052 111.577 136.2 111.812C135.355 112.045 134.411 112.046 133.637 111.738C132.845 111.468 132.211 110.965 131.788 110.307C131.465 109.806 131.61 109.138 132.111 108.815C132.212 108.75 132.32 108.704 132.43 108.676L132.723 108.604C133.058 108.52 133.326 108.526 133.582 108.494C133.832 108.439 134.058 108.465 134.256 108.407C134.66 108.365 134.954 108.289 135.272 108.235C135.588 108.176 135.922 108.077 136.334 107.936C136.73 107.8 137.209 107.547 137.708 107.396L138.133 107.268C138.656 107.109 139.209 107.405 139.367 107.928C139.413 108.079 139.42 108.237 139.396 108.383Z"
        fill="#704739" />
    <path
        d="M138.495 95.4934C138.863 93.8365 138.441 92.3334 137.552 92.1362C136.664 91.9391 135.645 93.1225 135.278 94.7794C134.91 96.4364 135.332 97.9396 136.221 98.1367C137.109 98.3339 138.128 97.1504 138.495 95.4934Z"
        fill="#3A312E" />
    <path
        d="M149.047 73.5607C146.637 76.1515 145.71 81.4272 152.841 88.3766C158.305 93.701 157.37 100.438 157.37 100.438C157.37 100.438 159.453 101.117 163.407 96.7514C167.215 92.5471 170.234 82.417 166.783 76.0432C162.256 67.6811 155.733 66.372 149.047 73.5607Z"
        fill="#33312D" />
    <path
        d="M150.263 85.3653C153.461 85.3653 156.055 82.7721 156.055 79.5733C156.055 76.3744 153.461 73.7812 150.263 73.7812C147.064 73.7812 144.471 76.3744 144.471 79.5733C144.471 82.7721 147.064 85.3653 150.263 85.3653Z"
        fill="#33312D" />
    <path
        d="M155.059 94.3775C158.258 94.3775 160.851 91.7844 160.851 88.5855C160.851 85.3866 158.258 82.7935 155.059 82.7935C151.861 82.7935 149.268 85.3866 149.268 88.5855C149.268 91.7844 151.861 94.3775 155.059 94.3775Z"
        fill="#33312D" />
    <path
        d="M153.673 109.188L158.319 110.219C161.231 110.865 164.114 109.028 164.76 106.117L164.902 105.478C165.548 102.567 163.711 99.6831 160.8 99.0372L156.154 98.0062C154.653 97.6729 153.165 98.6201 152.831 100.122L151.558 105.865C151.224 107.367 152.171 108.854 153.673 109.188Z"
        fill="#9B643D" />
    <path
        d="M160.002 115.12C160.633 112.464 159.078 109.819 156.529 109.213C153.979 108.608 151.402 110.27 150.77 112.926C150.139 115.582 151.694 118.226 154.243 118.832C156.793 119.438 159.371 117.776 160.002 115.12Z"
        stroke="#F8C954"
        stroke-width="2.44" />
    <path
        d="M115.044 23.4786C113.193 24.3666 109.557 26.3237 106.804 30.3794C99.6469 40.9224 91.4538 42.4525 87.3753 39.6885C81.405 35.6425 68.7266 18.8414 68.7266 18.8414L90.7065 4C90.7065 4 97.9834 14.3494 103.986 17.9445C109.879 21.4742 111.465 20.7132 115.044 23.4786Z"
        fill="#E1DFDD" />
    <path
        d="M97.9324 39.1619C93.6324 41.6682 89.7195 41.6675 87.5044 39.7978C88.7248 40.2524 90.5762 40.3431 92.8533 38.5443C92.8533 38.5444 96.2422 39.8085 97.9324 39.1619Z"
        fill="#C8C6C4" />
    <path
        d="M95.6889 19.9048C92.7352 22.1709 89.7849 24.4331 86.8398 26.6906C86.5976 26.8772 86.2589 26.8329 86.0917 26.5885C85.9202 26.3462 85.9857 25.9941 86.2288 25.8079C89.1669 23.5562 92.1112 21.3004 95.0588 19.0404C95.301 18.8554 95.6415 18.8956 95.8147 19.1353C95.8147 19.1354 95.8147 19.1354 95.8147 19.1353C95.9871 19.3744 95.9336 19.716 95.6889 19.9048Z"
        fill="white" />
    <path
        d="M90.5115 14.335C87.5578 16.6012 84.6076 18.8633 81.6616 21.1209C81.4203 21.3075 81.0816 21.2632 80.9135 21.0187C80.742 20.7764 80.8075 20.4243 81.0505 20.238C83.9896 17.9863 86.9329 15.7307 89.8815 13.4705C90.1237 13.2856 90.4641 13.3257 90.6365 13.5655C90.6365 13.5656 90.6365 13.5656 90.6365 13.5655C90.8097 13.8045 90.7554 14.1462 90.5115 14.335Z"
        fill="white" />
    <path
        d="M100.058 25.219C97.0712 27.5183 94.0899 29.8127 91.1129 32.1021C90.8673 32.2906 90.5139 32.264 90.326 32.0387C90.3269 32.0388 90.3269 32.0388 90.326 32.0387C90.139 31.8152 90.1898 31.4746 90.4346 31.2864C93.4064 29.0024 96.3808 26.7149 99.3612 24.4224C99.6068 24.2331 99.9619 24.2592 100.155 24.478C100.155 24.4782 100.155 24.4782 100.155 24.478C100.348 24.6975 100.304 25.0274 100.058 25.219Z"
        fill="white" />
    <path
        d="M36.3601 148.308C31.6744 158.147 24.3703 165.468 19.6851 175.307C29.8232 187.411 41.1608 195.604 57.7622 193.439C62.4474 183.6 65.9975 173.168 70.6828 163.329C57.0546 164.964 48.2811 161.047 36.3601 148.308Z"
        fill="#F3F2F1" />
    <path
        d="M44.1156 164.507C41.95 168.565 39.7877 172.616 37.6283 176.659C37.4493 176.995 37.012 177.066 36.6524 176.818C36.6526 176.818 36.6526 176.818 36.6524 176.818C36.2949 176.568 36.1463 176.094 36.3258 175.76C38.4801 171.725 40.6379 167.684 42.7991 163.636C42.9793 163.303 43.4192 163.224 43.7801 163.467C43.78 163.466 43.78 163.466 43.7801 163.467C44.1453 163.706 44.2957 164.17 44.1156 164.507Z"
        fill="white" />
    <path
        d="M55.5272 170.186C53.3406 174.296 51.1566 178.4 48.9749 182.496C48.7971 182.834 48.3442 182.936 47.9723 182.717C47.5976 182.501 47.4453 182.044 47.6253 181.705C49.8027 177.619 51.9831 173.525 54.1663 169.425C54.3464 169.088 54.798 168.981 55.173 169.193C55.5479 169.404 55.7073 169.843 55.5272 170.186Z"
        fill="white" />
    <defs>
        <linearGradient
            id="paint0_linear_4777_274775"
            x1="169.114"
            y1="144.179"
            x2="97.7517"
            y2="151.303"
            gradientUnits="userSpaceOnUse">
            <stop stop-color="#EB757B" />
            <stop offset="0.5379" stop-color="#ED8389" />
            <stop offset="0.8794" stop-color="#EE8F94" />
        </linearGradient>
        <linearGradient
            id="paint1_linear_4777_274775"
            x1="20.9097"
            y1="30.0101"
            x2="27.562"
            y2="46.5301"
            gradientUnits="userSpaceOnUse">
            <stop stop-color="#EE8F94" />
            <stop offset="0.4877" stop-color="#EE8B91" />
            <stop offset="0.9388" stop-color="#EE8086" />
            <stop offset="1" stop-color="#EE7E84" />
        </linearGradient>
        <radialGradient
            id="paint2_radial_4777_274775"
            cx="0"
            cy="0"
            r="1"
            gradientUnits="userSpaceOnUse"
            gradientTransform="translate(174.174 175.242) scale(30.2608 35.482)">
            <stop stop-color="#EB757B" />
            <stop offset="0.3917" stop-color="#EB797F" />
            <stop offset="0.786" stop-color="#ED858A" />
            <stop offset="1" stop-color="#EE8F94" />
        </radialGradient>
        <radialGradient
            id="paint3_radial_4777_274775"
            cx="0"
            cy="0"
            r="1"
            gradientUnits="userSpaceOnUse"
            gradientTransform="translate(159.752 181.018) scale(18.4516 10.2623)">
            <stop stop-color="#EB757B" />
            <stop offset="1" stop-color="#EE8F94" />
        </radialGradient>
        <radialGradient
            id="paint4_radial_4777_274775"
            cx="0"
            cy="0"
            r="1"
            gradientUnits="userSpaceOnUse"
            gradientTransform="translate(136.409 110.244) rotate(-2.43022) scale(15.8647 18.5637)">
            <stop stop-color="#6E4539" />
            <stop offset="0.1544" stop-color="#754A3A" />
            <stop offset="1" stop-color="#9B643D" />
        </radialGradient>
        <radialGradient
            id="paint5_radial_4777_274775"
            cx="0"
            cy="0"
            r="1"
            gradientUnits="userSpaceOnUse"
            gradientTransform="translate(144.783 102.617) rotate(12.5091) scale(7.72739 10.9319)">
            <stop stop-color="#9B643D" />
            <stop offset="1" stop-color="#BF8F68" />
        </radialGradient>
    </defs>
</svg>
