<svg width="206" height="162" viewBox="0 0 206 162" fill="none" xmlns="http://www.w3.org/2000/svg">
    <path
        d="M125 162C169.735 162 206 125.735 206 81C206 36.2649 169.735 0 125 0C80.2649 0 44 36.2649 44 81C44 125.735 80.2649 162 125 162Z"
        fill="#E1DFDD" />
    <path
        d="M112.009 55.9561C108.864 55.4736 73.6631 80.6189 73.6631 80.6189L86.6807 109.032C88.3507 112.683 92.6645 114.289 96.3156 112.619C97.7731 111.953 98.9695 110.823 99.7187 109.406C100.728 107.501 100.84 105.246 100.024 103.25L92.8225 85.6535L133.058 74.9662L112.009 55.9561Z"
        fill="#BD8E67" />
    <path
        d="M124.15 57.0713C121.005 56.5889 85.8042 81.7341 85.8042 81.7341L98.8354 110.147C100.505 113.798 104.819 115.404 108.47 113.734C109.928 113.068 111.124 111.938 111.873 110.521C112.883 108.616 112.995 106.361 112.179 104.365L104.977 86.7686L145.212 76.095L124.15 57.0713Z"
        fill="#BD8E67" />
    <path
        d="M134.566 55.7119C131.42 55.2295 96.2197 80.3747 96.2197 80.3747L109.251 108.788C110.921 112.439 115.235 114.045 118.886 112.375C120.343 111.708 121.54 110.579 122.289 109.162C123.299 107.257 123.41 105.002 122.595 103.006L115.393 85.4092L155.628 74.7356L134.566 55.7119Z"
        fill="#BD8E67" />
    <path
        d="M206 81.0004C206.031 94.8186 202.5 108.412 195.747 120.468C194.946 121.908 194.101 123.319 193.213 124.7C180.358 124.7 159.371 122.703 151.313 110.011L141.537 94.6091L132.786 80.817L132.004 79.5804L129.654 75.8776L125.407 69.2057L123.709 66.5288L122.805 65.1088L122.268 65.2311L118.056 66.2027L116.018 66.6782L107.022 68.7165L106.343 68.8727L103.177 69.5997L91.98 72.2222H91.8916L90.3697 72.5688L86.9726 73.3501L81.4899 95.8999L81.2046 97.0753L80.5252 99.7182C79.3766 104.613 74.4771 107.65 69.5819 106.502C64.8477 105.391 61.8222 100.756 62.7109 95.9746L65.7207 81.8088L65.8566 81.1769L67.4397 73.7033L68.3229 69.5317L69.0567 66.0803L69.4779 64.0828C69.6199 63.4225 69.8014 62.7714 70.0214 62.1329C71.5223 57.8448 74.7645 54.3903 78.9489 52.6211L99.8682 43.7887L111.133 39.0328C117.301 36.4292 124.315 36.7513 130.218 39.9092C145.375 48.0146 175.596 64.1847 194.952 74.5187L205.945 80.3821C206 80.5995 206 80.8033 206 81.0004Z"
        fill="#BD8E67" />
    <path
        d="M138.844 69.6316C140.11 79.0272 127.048 88.543 109.668 90.8856C92.2888 93.2282 77.1731 87.5106 75.9066 78.115C74.6401 68.7193 87.7025 59.2036 105.082 56.8609C122.462 54.5183 137.577 60.2359 138.844 69.6316Z"
        fill="url(#paint0_radial_2542_58698)" />
    <path d="M62.8943 73.3287L55.5294 81.1895L48.1577 73.3287L55.5226 65.4746L62.8943 73.3287Z" fill="#C0DCE6" />
    <path d="M67.4806 63.2812H55.5229V81.1839H67.4806V63.2812Z" fill="#8B8CC7" />
    <path
        d="M66.8623 83.8867C67.0586 84.2183 67.1673 84.3882 67.3292 84.638C67.0101 84.1349 66.7049 83.6207 66.417 83.0938C66.5499 83.3386 66.7137 83.6357 66.8623 83.8867Z"
        fill="#8B8CC7" />
    <path
        d="M98.958 77.31C98.802 77.31 98.6497 77.296 98.4961 77.2867C98.6436 77.3001 98.7884 77.3256 98.9376 77.3304C101.262 77.3304 103.339 76.2685 104.71 74.6035C103.34 76.2566 101.272 77.31 98.958 77.31Z"
        fill="#8B8CC7" />
    <path
        d="M67.8677 85.4576C68.0511 85.7226 68.2346 85.9876 68.4248 86.239L68.4877 86.3271C68.1465 85.8683 67.8206 85.3962 67.5068 84.9141C67.6246 85.0957 67.7461 85.2821 67.8677 85.4576Z"
        fill="#8B8CC7" />
    <path
        d="M65.7618 81.829C65.7971 81.9131 65.8379 81.9949 65.8841 82.0736C66.02 82.3454 66.1559 82.6103 66.2986 82.8753C66.3073 82.8917 66.319 82.9131 66.3285 82.9307C66.0221 82.3609 65.7313 81.7796 65.4629 81.1836C65.5579 81.4008 65.6599 81.6115 65.7618 81.829Z"
        fill="#8B8CC7" />
    <path
        d="M78.1135 94.4461C78.3717 94.582 78.6366 94.7111 78.9084 94.8402H78.9146C78.6112 94.6976 78.3125 94.546 78.0146 94.3926C78.048 94.4097 78.0801 94.4291 78.1135 94.4461Z"
        fill="#8B8CC7" />
    <path
        d="M69.0296 87.0602C69.2335 87.3116 69.4372 87.563 69.6479 87.8075C69.8585 88.0521 70.0759 88.3034 70.3273 88.5412C70.4324 88.6406 70.5238 88.7388 70.6155 88.8357C69.8982 88.0792 69.2109 87.291 68.5791 86.4512L69.0296 87.0602Z"
        fill="#8B8CC7" />
    <path
        d="M75.287 92.7871C75.3254 92.8151 75.3667 92.8376 75.4059 92.8641C75.1324 92.6829 74.8628 92.4957 74.5957 92.3047C74.8255 92.4712 75.0571 92.6327 75.287 92.7871Z"
        fill="#8B8CC7" />
    <path
        d="M67.1534 58.5254L67.1602 73.3299L7.12707 73.3435L4.29387 71.8215L0 69.5116L10.2863 58.5459L67.1534 58.5254Z"
        fill="#8B8CC7" />
    <path d="M8.57422 65.8426L12.0121 62.1737L73.9611 62.1602V66.1279L8.57422 65.8426Z" fill="#6264A7" />
    <path
        d="M98.6307 62.3771C102.664 62.3771 105.941 65.5767 106.084 69.5747C106.084 69.5717 106.084 69.5684 106.084 69.5654H117.899C117.899 69.3802 117.899 69.1955 117.899 69.0083C117.873 68.0674 117.798 67.1286 117.675 66.1955L117.607 65.3802C117.352 63.8085 116.959 62.2624 116.431 60.7601C116.35 60.5155 116.262 60.2642 116.16 60.0196C110.705 45.7589 94.7235 38.6196 80.4627 44.0736C72.3841 47.1632 66.2171 53.8559 63.7971 62.1597C63.6951 62.5334 63.5932 62.9003 63.5049 63.2807C63.2761 64.2031 63.0992 65.1377 62.975 66.0799C62.8167 67.2329 62.7306 68.3947 62.7168 69.5584V69.5788H91.1773C91.318 65.5789 94.5964 62.3771 98.6307 62.3771Z"
        fill="#8B8CC7" />
    <path
        d="M117.967 69.5649H117.899H106.084C106.084 69.5679 106.084 69.5712 106.084 69.5742C106.084 69.6664 106.084 69.7605 106.084 69.857C106.084 71.6597 105.446 73.3129 104.383 74.6038C103.012 76.2687 100.935 77.3307 98.6104 77.3307C98.4612 77.3259 98.3163 77.3004 98.1689 77.2869C95.6358 77.0557 93.3717 75.5795 92.1695 73.3153C91.484 72.1921 91.1394 70.8939 91.1776 69.5786H91.1774H62.7169H0.0678711L8.87996 79.0225C10.0796 80.2991 12.0088 80.5626 13.5068 79.6544L18.3035 76.7465L23.6437 79.9738C24.886 80.7251 26.4524 80.6826 27.6522 79.865L33.0536 76.1894L38.489 79.8582C39.6901 80.6736 41.2565 80.7135 42.4975 79.9602L47.8309 76.7261L55.2026 81.1831H65.1357C65.4041 81.7792 65.6949 82.3604 66.0013 82.9302C66.0308 82.9851 66.0601 83.0398 66.09 83.0943C66.378 83.6212 66.6831 84.1354 67.0022 84.6385C67.0607 84.7308 67.1205 84.8217 67.18 84.9131C67.4939 85.3951 67.8197 85.8674 68.1609 86.3261C68.1916 86.3676 68.2211 86.41 68.252 86.4512C68.8838 87.291 69.5711 88.0791 70.2884 88.8357C71.5065 90.1204 72.8375 91.2822 74.2688 92.3052C74.5359 92.4961 74.8054 92.6833 75.079 92.8646C75.5062 93.1477 75.9432 93.4143 76.3856 93.6731C76.4793 93.728 76.5717 93.7848 76.666 93.8385C77.0026 94.0303 77.343 94.2144 77.6876 94.3919C77.9855 94.5454 78.2841 94.6969 78.5876 94.8395C82.2817 96.5761 86.3786 97.5157 90.6262 97.4712C104.232 97.3288 115.43 87.3762 117.591 74.406C117.595 74.3783 117.6 74.3507 117.605 74.323C117.859 72.7686 117.991 71.1738 117.974 69.5449L117.967 69.5649Z"
        fill="#6264A7" />
    <path
        d="M201.074 108.89C199.606 112.875 197.825 116.737 195.747 120.44L165.751 106.539L141.537 94.5816L141.17 94.3982L118.07 91.8776L108.633 90.8517L106.594 90.6343L100.65 89.9549L99.515 89.8326C97.4371 89.6092 95.4463 88.8764 93.7196 87.6992L93.6585 87.6584C91.9157 86.4597 90.4985 84.8464 89.5344 82.9637C87.8076 79.6076 88.1423 75.5612 90.3972 72.5347C90.7683 72.0292 91.1869 71.5605 91.6474 71.1351C93.5191 69.3976 95.9973 68.4634 98.5502 68.5329L104.577 68.662L106.336 68.7028H107.016L112.743 68.8318L118.28 68.9677L125.407 69.1579C125.842 69.1579 126.277 69.1579 126.719 69.1987C130.53 69.3074 134.335 69.4229 138.017 69.552C142.4 69.6947 146.598 69.8509 150.424 70.0208C159.467 70.4148 166.417 70.8632 168.7 71.3796L194.986 74.5185L201.074 108.89Z"
        fill="#BD8E67" />
    <path
        opacity="0.5"
        d="M93.133 77.8007C93.5097 74.5693 96.4346 72.2552 99.666 72.632L104.66 73.2142L103.296 84.916L98.3017 84.3338C95.0704 83.957 92.7562 81.032 93.133 77.8007Z"
        fill="#E0BB95" />
    <defs>
        <radialGradient
            id="paint0_radial_2542_58698"
            cx="0"
            cy="0"
            r="1"
            gradientUnits="userSpaceOnUse"
            gradientTransform="translate(114.086 74.2666) rotate(-7.67632) scale(33.4608 18.0895)">
            <stop stop-color="#9B643D" />
            <stop offset="0.6269" stop-color="#B4825B" />
            <stop offset="1" stop-color="#BF8F68" />
        </radialGradient>
    </defs>
</svg>
