<svg width="198" height="200" viewBox="0 0 198 200" fill="none" xmlns="http://www.w3.org/2000/svg">
    <g clip-path="url(#clip0_1244_101895)">
        <path
            fill-rule="evenodd"
            clip-rule="evenodd"
            d="M137.511 144.144L50.3133 173.678C48.3212 174.352 46.1619 173.285 45.4864 171.294L0.202109 37.5969C-0.472058 35.6047 0.595324 33.4454 2.58616 32.77L89.7838 3.23532C91.7759 2.56116 93.9365 3.62842 94.6107 5.61937L139.895 139.318C140.569 141.309 139.503 143.468 137.511 144.144Z"
            fill="#E1DFDD" />
        <path
            fill-rule="evenodd"
            clip-rule="evenodd"
            d="M77.6242 74.8546L55.766 82.2585C47.7951 84.958 39.1435 80.6854 36.4426 72.7119L30.947 56.4912C28.2488 48.5203 32.5214 39.8686 40.4935 37.1678L62.3519 29.7652C70.324 27.0643 78.9756 31.3369 81.6752 39.3104L87.1695 55.5312C89.8703 63.5033 85.5951 72.1537 77.6242 74.8546Z"
            fill="white" />
        <path
            fill-rule="evenodd"
            clip-rule="evenodd"
            d="M72.0135 59.4778C70.8461 59.8734 69.5799 59.2472 69.1844 58.0811L62.98 39.7635C62.5843 38.5949 63.2105 37.3274 64.3767 36.9331C65.5453 36.5374 66.8114 37.1637 67.2058 38.3311L73.4116 56.6486C73.8058 57.816 73.1809 59.0822 72.0135 59.4778Z"
            fill="#C8C6C4" />
        <path
            fill-rule="evenodd"
            clip-rule="evenodd"
            d="M99.1019 138.263L77.2435 145.666C69.2714 148.367 60.6198 144.094 57.9202 136.121L52.4246 119.9C49.725 111.928 53.999 103.277 61.9698 100.577L83.8281 93.1728C91.8015 90.4731 100.453 94.7458 103.151 102.718L108.647 118.94C111.348 126.912 107.073 135.563 99.1019 138.263Z"
            fill="white" />
        <path
            fill-rule="evenodd"
            clip-rule="evenodd"
            d="M50.8766 66.6372C49.7092 67.0316 48.4429 66.4053 48.0474 65.2392L41.843 46.9218C41.4473 45.7532 42.0736 44.4869 43.2409 44.0913C44.4083 43.6957 45.6757 44.3219 46.0701 45.4893L52.2746 63.8081C52.6702 64.9741 52.044 66.2416 50.8766 66.6372Z"
            fill="#C8C6C4" />
        <path
            fill-rule="evenodd"
            clip-rule="evenodd"
            d="M65.2299 67.2724C65.6254 68.4398 64.9993 69.706 63.8319 70.1016C62.6645 70.4972 61.3971 69.8723 61.0014 68.7037C60.6071 67.5376 61.232 66.2702 62.4007 65.8745C63.5668 65.4789 64.8341 66.1052 65.2299 67.2724Z"
            fill="#C8C6C4" />
        <path
            fill-rule="evenodd"
            clip-rule="evenodd"
            d="M72.3543 130.044C71.1869 130.44 69.9207 129.814 69.5252 128.648L63.3208 110.33C62.9251 109.161 63.5513 107.894 64.7175 107.5C65.8861 107.104 67.1536 107.73 67.5467 108.898L73.7524 127.215C74.1479 128.382 73.5216 129.649 72.3543 130.044Z"
            fill="#C8C6C4" />
        <path
            fill-rule="evenodd"
            clip-rule="evenodd"
            d="M93.4908 122.885C92.3234 123.281 91.0572 122.655 90.6616 121.489L84.4559 103.17C84.0615 102.002 84.6877 100.735 85.8538 100.339C87.0212 99.9437 88.2886 100.57 88.6831 101.739L94.8875 120.056C95.2832 121.223 94.6581 122.49 93.4908 122.885Z"
            fill="#C8C6C4" />
        <path
            fill-rule="evenodd"
            clip-rule="evenodd"
            d="M86.7061 130.683C87.1017 131.85 86.4755 133.116 85.3094 133.512C84.1408 133.906 82.8747 133.281 82.479 132.114C82.0834 130.948 82.7096 129.68 83.8769 129.285C85.0442 128.889 86.3105 129.515 86.7061 130.683Z"
            fill="#C8C6C4" />
        <path
            fill-rule="evenodd"
            clip-rule="evenodd"
            d="M133.704 55.0104L147.284 39.2888C147.536 39.0216 147.985 39.1259 148.093 39.4771L150.664 46.0616C150.759 46.3707 151.126 46.4999 151.393 46.318L161.941 39.1588C162.408 38.8411 162.944 39.4488 162.572 39.8735L148.267 56.1309C148.016 56.4173 147.546 56.3115 147.445 55.9441L145.413 48.7312C145.322 48.4126 144.946 48.2794 144.673 48.4697L134.331 55.7319C133.856 56.066 133.307 55.4315 133.704 55.0104Z"
            fill="#E2E2F6" />
        <path
            fill-rule="evenodd"
            clip-rule="evenodd"
            d="M122.625 44.116L121.012 14.9728C121.006 14.4536 121.56 14.1218 122.013 14.3743L131.037 18.5204C131.435 18.7394 131.931 18.5118 132.024 18.0683L135.702 0.536678C135.864 -0.238917 137 -0.148679 137.037 0.644893L138.441 31.0391C138.465 31.5728 137.888 31.9212 137.426 31.6532L128.334 26.3458C127.933 26.1105 127.421 26.3425 127.331 26.7998L123.963 44.2369C123.809 45.0343 122.635 44.9292 122.625 44.116Z"
            fill="#E2E2F6" />
        <path
            d="M75.9218 199.885C75.7596 199.885 75.5957 199.878 75.43 199.862C72.6061 199.594 70.5344 197.087 70.803 194.263C72.3445 178.031 82.9118 167.164 97.1237 167.164C97.1836 167.164 97.2435 167.164 97.3039 167.164C104.765 167.212 109.623 171.357 113.527 174.687C117.479 178.061 120.597 180.715 126.196 180.279C136.448 179.462 139.97 159.724 140.003 159.524C140.462 156.728 143.089 154.825 145.896 155.283C148.693 155.737 150.594 158.366 150.144 161.164C149.961 162.301 145.449 189.05 127.013 190.519C117.177 191.306 111.455 186.424 106.858 182.502C103.084 179.282 100.778 177.459 97.2383 177.437C97.2023 177.437 97.1668 177.437 97.1314 177.437C88.3726 177.437 82.0575 184.41 81.0292 195.235C80.7767 197.894 78.5393 199.885 75.9218 199.885Z"
            fill="#A6A7DC" />
        <path
            d="M125.64 97.877L118.377 118.767C114.685 129.385 116.038 140.53 121.158 149.608L137.292 144.143C139.284 143.468 140.351 141.309 139.676 139.318L125.64 97.877Z"
            fill="#8B8CC7" />
        <path
            fill-rule="evenodd"
            clip-rule="evenodd"
            d="M137.511 144.144L50.3133 173.678C48.3212 174.352 46.1619 173.285 45.4864 171.294L0.202109 37.5969C-0.472058 35.6047 0.595324 33.4454 2.58616 32.77L89.7838 3.23532C91.7759 2.56116 93.9365 3.62842 94.6107 5.61937L139.895 139.318C140.569 141.309 139.503 143.468 137.511 144.144Z"
            fill="#E1DFDD" />
        <path
            fill-rule="evenodd"
            clip-rule="evenodd"
            d="M77.6242 74.8546L55.766 82.2585C47.7951 84.958 39.1435 80.6854 36.4426 72.7119L30.947 56.4912C28.2488 48.5203 32.5214 39.8686 40.4935 37.1678L62.3519 29.7652C70.324 27.0643 78.9756 31.3369 81.6752 39.3104L87.1695 55.5312C89.8703 63.5033 85.5951 72.1537 77.6242 74.8546Z"
            fill="white" />
        <path
            fill-rule="evenodd"
            clip-rule="evenodd"
            d="M72.0135 59.4778C70.8461 59.8734 69.5799 59.2472 69.1844 58.0811L62.98 39.7635C62.5843 38.5949 63.2105 37.3274 64.3767 36.9331C65.5453 36.5374 66.8114 37.1637 67.2058 38.3311L73.4116 56.6486C73.8058 57.816 73.1809 59.0822 72.0135 59.4778Z"
            fill="#C8C6C4" />
        <path
            fill-rule="evenodd"
            clip-rule="evenodd"
            d="M99.1019 138.263L77.2435 145.666C69.2714 148.367 60.6198 144.094 57.9202 136.121L52.4246 119.9C49.725 111.928 53.999 103.277 61.9698 100.577L83.8281 93.1728C91.8015 90.4731 100.453 94.7458 103.151 102.718L108.647 118.94C111.348 126.912 107.073 135.563 99.1019 138.263Z"
            fill="white" />
        <path
            fill-rule="evenodd"
            clip-rule="evenodd"
            d="M50.8766 66.6372C49.7092 67.0316 48.4429 66.4053 48.0474 65.2392L41.843 46.9218C41.4473 45.7532 42.0736 44.4869 43.2409 44.0913C44.4083 43.6957 45.6757 44.3219 46.0701 45.4893L52.2746 63.8081C52.6702 64.9741 52.044 66.2416 50.8766 66.6372Z"
            fill="#C8C6C4" />
        <path
            fill-rule="evenodd"
            clip-rule="evenodd"
            d="M65.2299 67.2724C65.6254 68.4398 64.9993 69.706 63.8319 70.1016C62.6645 70.4972 61.3971 69.8723 61.0014 68.7037C60.6071 67.5376 61.232 66.2702 62.4007 65.8745C63.5668 65.4789 64.8341 66.1052 65.2299 67.2724Z"
            fill="#C8C6C4" />
        <path
            fill-rule="evenodd"
            clip-rule="evenodd"
            d="M72.3543 130.044C71.1869 130.44 69.9207 129.814 69.5252 128.648L63.3208 110.33C62.9251 109.161 63.5513 107.894 64.7175 107.5C65.8861 107.104 67.1536 107.73 67.5467 108.898L73.7524 127.215C74.1479 128.382 73.5216 129.649 72.3543 130.044Z"
            fill="#C8C6C4" />
        <path
            fill-rule="evenodd"
            clip-rule="evenodd"
            d="M93.4908 122.885C92.3234 123.281 91.0572 122.655 90.6616 121.489L84.4559 103.17C84.0615 102.002 84.6877 100.735 85.8538 100.339C87.0212 99.9437 88.2886 100.57 88.6831 101.739L94.8875 120.056C95.2832 121.223 94.6581 122.49 93.4908 122.885Z"
            fill="#C8C6C4" />
        <path
            fill-rule="evenodd"
            clip-rule="evenodd"
            d="M86.7061 130.683C87.1017 131.85 86.4755 133.116 85.3094 133.512C84.1408 133.906 82.8747 133.281 82.479 132.114C82.0834 130.948 82.7096 129.68 83.8769 129.285C85.0442 128.889 86.3105 129.515 86.7061 130.683Z"
            fill="#C8C6C4" />
        <path
            fill-rule="evenodd"
            clip-rule="evenodd"
            d="M133.704 55.0104L147.284 39.2888C147.536 39.0216 147.985 39.1259 148.093 39.4771L150.664 46.0616C150.759 46.3707 151.126 46.4999 151.393 46.318L161.941 39.1588C162.408 38.8411 162.944 39.4488 162.572 39.8735L148.267 56.1309C148.016 56.4173 147.546 56.3115 147.445 55.9441L145.413 48.7312C145.322 48.4126 144.946 48.2794 144.673 48.4697L134.331 55.7319C133.856 56.066 133.307 55.4315 133.704 55.0104Z"
            fill="#E2E2F6" />
        <path
            fill-rule="evenodd"
            clip-rule="evenodd"
            d="M122.625 44.116L121.012 14.9728C121.006 14.4536 121.56 14.1218 122.013 14.3743L131.037 18.5204C131.435 18.7394 131.931 18.5118 132.024 18.0683L135.702 0.536678C135.864 -0.238917 137 -0.148679 137.037 0.644893L138.441 31.0391C138.465 31.5728 137.888 31.9212 137.426 31.6532L128.334 26.3458C127.933 26.1105 127.421 26.3425 127.331 26.7998L123.963 44.2369C123.809 45.0343 122.635 44.9292 122.625 44.116Z"
            fill="#E2E2F6" />
        <path
            d="M75.7033 200C75.5411 200 75.3772 199.993 75.2115 199.977C72.3876 199.71 70.3159 197.202 70.5845 194.378C72.126 178.146 82.6933 167.28 96.9052 167.28C96.9651 167.28 97.0249 167.28 97.0854 167.28C104.547 167.327 109.404 171.472 113.308 174.803C117.261 178.176 120.379 180.831 125.978 180.395C136.229 179.577 139.752 159.839 139.785 159.639C140.244 156.843 142.87 154.94 145.678 155.398C148.475 155.853 150.376 158.481 149.926 161.28C149.742 162.417 145.23 189.165 126.794 190.635C116.959 191.422 111.236 186.539 106.64 182.617C102.866 179.397 100.559 177.574 97.0198 177.552C96.9838 177.552 96.9483 177.552 96.9129 177.552C88.1541 177.552 81.839 184.525 80.8107 195.35C80.5582 198.009 78.3208 200 75.7033 200Z"
            fill="#A6A7DC" />
        <path
            fill-rule="evenodd"
            clip-rule="evenodd"
            d="M191.312 77.5942C188.685 76.676 185.812 78.0603 184.893 80.6864L174.911 109.219L184.422 112.547L194.404 84.0141C195.323 81.3879 193.939 78.5124 191.312 77.5942Z"
            fill="#E1DFDD" />
        <path
            fill-rule="evenodd"
            clip-rule="evenodd"
            d="M158.024 65.9477C155.397 65.0295 152.523 66.4138 151.604 69.0399L141.623 97.5724L151.133 100.9L161.116 72.3676C162.035 69.7415 160.65 66.866 158.024 65.9477Z"
            fill="#E1DFDD" />
        <path
            d="M141.668 166.88L141.335 166.764C121.713 159.942 111.336 138.504 118.159 118.882L126.011 96.2976C126.718 94.265 128.938 93.1901 130.971 93.8969L195.001 116.159C197.034 116.866 198.109 119.086 197.402 121.119L189.549 143.704C182.727 163.326 161.29 173.702 141.668 166.88Z"
            fill="#A6A7DC" />
        <path
            fill-rule="evenodd"
            clip-rule="evenodd"
            d="M191.312 77.5942C188.685 76.676 185.812 78.0603 184.893 80.6864L174.911 109.219L184.422 112.547L194.404 84.0141C195.323 81.3879 193.939 78.5124 191.312 77.5942Z"
            fill="#E1DFDD" />
        <path
            fill-rule="evenodd"
            clip-rule="evenodd"
            d="M158.024 65.9477C155.397 65.0295 152.523 66.4138 151.604 69.0399L141.623 97.5724L151.133 100.9L161.116 72.3676C162.035 69.7415 160.65 66.866 158.024 65.9477Z"
            fill="#E1DFDD" />
        <path
            d="M141.668 166.88L141.335 166.764C121.713 159.942 111.336 138.504 118.159 118.882L126.011 96.2976C126.718 94.265 128.938 93.1901 130.971 93.8969L195.001 116.159C197.034 116.866 198.109 119.086 197.402 121.119L189.549 143.704C182.727 163.326 161.29 173.702 141.668 166.88Z"
            fill="#A6A7DC" />
        <path
            d="M125.422 97.9922L118.159 118.882C114.467 129.5 115.82 140.645 120.94 149.723L137.074 144.259C139.066 143.583 140.132 141.424 139.458 139.433L125.422 97.9922Z"
            fill="#8B8CC7" />
    </g>
    <defs>
        <clipPath id="clip0_1244_101895">
            <rect width="197.619" height="200" fill="white" />
        </clipPath>
    </defs>
</svg>
