<svg width="280" height="256" viewBox="0 0 280 256" fill="none" xmlns="http://www.w3.org/2000/svg">
    <g clip-path="url(#clip0_253_128269)">
        <path
            d="M127.4 93C117 102.2 80.8 120.5 63.9 139.7C50.8 107.3 21.7 66.7 0 53C20.6 38.8 40 15.6 63.5 6.19995C83.3 8.29995 122.7 59.5 127.4 93Z"
            fill="#F3F2F1" />
        <path
            d="M154.6 128.3C142.5 135.1 109 146.5 82.7 160.6C79.7 133 62.4 87.4 43 66.2C69.5 56.6 100 33.7 118.9 33C133.3 41.9 152.1 85.9 154.6 128.3Z"
            fill="#E1DFDD" />
        <path
            d="M179.3 168.6C152.7 173.7 126.1 178.8 99.1999 183.9C99.3999 149 93.2999 113.2 80.8999 78.1C105.9 73 130.7 67.9 155.4 62.8C169.7 97.7001 177.7 133.5 179.3 168.6Z"
            fill="#FAF9F8" />
        <path
            d="M123.6 89.5C123.2 88.3 122.8 87 122.4 85.8C130.9 84 139.4 82.2 147.8 80.5C148.2 81.7 148.6 82.9 149.1 84.2C140.6 86 132.1 87.8 123.6 89.5Z"
            fill="#E1DFDD" />
        <path
            d="M102.8 109.1C101.2 102.6 99.5 96.2001 97.5 89.7001C103.6 88.5001 109.8 87.3001 115.9 86.1001C118 92.5001 119.8 99.0001 121.4 105.5C115.2 106.7 109 107.9 102.8 109.1Z"
            fill="#E1DFDD" />
        <path
            d="M127.5 103.4C127.1 101.9 126.7 100.4 126.3 98.9001C134.8 97.1001 143.2 95.4001 151.7 93.6001C152.2 95.1001 152.6 96.6001 153 98.1001C144.4 99.9001 136 101.6 127.5 103.4Z"
            fill="#E1DFDD" />
        <path
            d="M105.9 121.7C105.6 120.2 105.3 118.7 105 117.2C121.7 113.8 138.3 110.5 154.9 107.1C155.3 108.6 155.6 110.1 156 111.6C139.3 115 122.6 118.4 105.9 121.7Z"
            fill="#E1DFDD" />
        <path
            d="M107.9 135.3C107.7 133.8 107.4 132.3 107.2 130.8C124 127.4 140.8 124.1 157.6 120.7C157.9 122.2 158.2 123.7 158.5 125.2C141.6 128.5 124.8 131.9 107.9 135.3Z"
            fill="#E1DFDD" />
        <path
            d="M109.2 148.8C109 147.3 108.8 145.8 108.7 144.3C125.7 140.9 142.6 137.6 159.5 134.2C159.7 135.7 160 137.2 160.2 138.7C143.3 142.1 126.3 145.5 109.2 148.8Z"
            fill="#E1DFDD" />
        <path
            d="M192.5 255.3H67.7999C57.2999 255.3 48.8999 246.8 48.8999 236.4V170.1C48.8999 167.1 51.3999 164.6 54.3999 164.6H206C209 164.6 211.5 167.1 211.5 170.1V236.4C211.4 246.8 202.9 255.3 192.5 255.3Z"
            fill="#C3C3E1" />
        <path
            d="M146.9 193.4H113.5C111.8 193.4 110.3 192 110.3 190.2V180.9C110.3 179.2 111.7 177.7 113.5 177.7H146.9C148.6 177.7 150.1 179.1 150.1 180.9V190.2C150 191.9 148.6 193.4 146.9 193.4Z"
            fill="#8B8CC4" />
        <path
            d="M217.9 78.1C216.7 81.5 214.6 84.5 211.8 86.6C211.3 87 211.3 87.7 211.7 88.1C214.5 90.6 216.6 93.7001 217.9 97.3001C218.2 98.2001 219.4 98.2001 219.7 97.3001C220.9 93.7001 223.1 90.5 225.9 88.1C226.4 87.7 226.3 87 225.8 86.6C223 84.5 220.8 81.5 219.7 78.1C219.4 77.2 218.2 77.2 217.9 78.1Z"
            fill="#FFD590" />
        <path
            d="M242.5 68C241.7 70.5 240.1 72.6 238.1 74.2C237.7 74.5 237.7 75.0001 238.1 75.3001C240.1 77.1001 241.7 79.4 242.6 82C242.8 82.7 243.7 82.7 243.9 82C244.8 79.4 246.3 77.1001 248.4 75.3001C248.7 75.0001 248.7 74.5 248.4 74.2C246.4 72.7 244.8 70.5 244 68C243.6 67.4 242.7 67.4 242.5 68Z"
            fill="#FFE5B9" />
        <path
            d="M113.1 0.500098C112.3 3.0001 110.7 5.1001 108.7 6.7001C108.3 7.0001 108.3 7.5001 108.7 7.8001C110.7 9.6001 112.3 11.9001 113.2 14.5001C113.4 15.2001 114.3 15.2001 114.5 14.5001C115.4 11.9001 116.9 9.6001 119 7.8001C119.3 7.5001 119.3 7.0001 119 6.7001C117 5.2001 115.4 3.0001 114.6 0.500098C114.2 -0.199902 113.3 -0.199902 113.1 0.500098Z"
            fill="#FFE5B9" />
        <path
            d="M168.6 16.8C168 18.4 167 19.8 165.7 20.8C165.5 21 165.5 21.3 165.7 21.5C167 22.7 168 24.2 168.6 25.9C168.7 26.3 169.3 26.3 169.5 25.9C170.1 24.2 171.1 22.7 172.4 21.5C172.6 21.3 172.6 21 172.4 20.8C171.1 19.8 170 18.4 169.5 16.8C169.3 16.4 168.7 16.4 168.6 16.8Z"
            fill="#FFE5B9" />
        <path
            d="M136.5 11.7001C135.3 15.1001 133.2 18.1001 130.4 20.2001C129.9 20.6001 129.9 21.3001 130.3 21.7001C133.1 24.2001 135.2 27.3001 136.5 30.9001C136.8 31.8001 138 31.8001 138.3 30.9001C139.5 27.3001 141.7 24.1001 144.5 21.7001C145 21.3001 144.9 20.6001 144.4 20.2001C141.6 18.1001 139.4 15.1001 138.3 11.7001C138 10.9001 136.8 10.9001 136.5 11.7001Z"
            fill="#FFD590" />
        <path d="M280 185.1L271.2 193.3L180.9 92.5001L185.1 88.6001L280 185.1Z" fill="#F7B548" />
        <path d="M195.3 108.5L256.9 177.3L264.9 169.8L200.2 104L195.3 108.5Z" fill="#797673" />
    </g>
    <defs>
        <clipPath id="clip0_253_128269">
            <rect width="280" height="255.3" fill="white" />
        </clipPath>
    </defs>
</svg>
