<svg width="101" height="107" viewBox="0 0 101 107" fill="none" xmlns="http://www.w3.org/2000/svg">
    <path
        d="M50.5872 106.201C78.3142 106.201 100.791 83.7233 100.791 55.9963C100.791 28.2692 78.3142 5.79199 50.5872 5.79199C22.8601 5.79199 0.382935 28.2692 0.382935 55.9963C0.382935 83.7233 22.8601 106.201 50.5872 106.201Z"
        fill="#8B8CC4" />
    <path
        d="M69.7246 56.1048C63.712 51.5853 68.1845 40.3551 59.6094 29.1994L42.9083 32.3961L24.4415 26.4888L19.649 74.1315C19.649 74.1315 21.8576 74.7805 36.5766 82.9467C43.5905 86.8381 50.1094 86.5244 54.6655 86.6505C56.771 86.7087 67.5586 92.0089 78.5546 97.6937C88.6882 90.8834 96.2015 80.4772 99.2696 68.3027C87.1524 63.5757 71.2808 57.2745 69.7246 56.1048Z"
        fill="url(#paint0_radial_1382_106052)" />
    <path
        d="M59.6094 29.1994C49.9486 15.8086 49.4201 16.1205 48.0737 6.95396C48.9446 -1.1718 38.7781 -3.1443 37.0619 7.32055C35.1585 18.927 40.3697 29.799 42.9083 32.3962C42.9083 32.3962 36.1869 47.3538 46.1388 58.8768C56.9831 71.433 63.5424 72.1188 63.5424 72.1188C63.5424 72.1188 66.5168 38.774 59.6094 29.1994Z"
        fill="#E0BB95" />
    <path
        d="M33.6611 44.3747L22.608 39.9496C18.2967 38.0318 15.6915 33.4902 17.0068 29.9023C18.322 26.3144 22.9545 25.3259 27.1422 27.5807L37.4661 32.4526C41.1711 34.0185 42.7752 38.1904 41.5647 41.664C40.7944 43.8741 37.0045 45.8618 33.6611 44.3747Z"
        fill="#E0BB95" />
    <path
        d="M30.0511 55.2689L17.163 50.7885C12.9085 49.3248 10.3006 45.2279 11.5478 41.7098C12.7951 38.1918 17.3276 36.8598 21.4675 38.6468L33.9472 44.2794C37.1749 45.6727 38.8482 49.1158 37.8162 52.0268C36.7842 54.9376 33.3682 56.41 30.0511 55.2689Z"
        fill="#E0BB95" />
    <path
        d="M28.9341 65.4136L18.5613 63.5266C14.6103 62.7073 10.7015 59.096 12.2349 54.6403C13.4269 51.1766 15.7953 50.1001 21.9392 51.9233L34.3324 55.4064C35.2383 55.5647 37.0452 58.5787 36.2133 61.4364C35.3814 64.294 32.1755 66.0857 28.9341 65.4136Z"
        fill="#E0BB95" />
    <path
        d="M25.1335 75.0737L20.9467 74.444C17.1288 73.8377 14.3371 70.7683 14.8667 67.6129C15.3962 64.4575 19.012 62.6153 22.7892 63.4637L30.1697 65.3864C33.3052 66.0907 35.4741 69.1304 34.9309 71.57C34.1403 75.121 31.5884 75.7266 25.1335 75.0737Z"
        fill="#E0BB95" />
    <path
        d="M80.765 34.8782C80.1401 36.7198 78.986 38.3117 77.4662 39.4633C77.1997 39.6652 77.1838 40.0379 77.4353 40.2583C78.9421 41.5794 80.0974 43.2869 80.7484 45.2277C80.9141 45.7216 81.5742 45.7215 81.7398 45.2277C82.3906 43.2869 83.5462 41.5794 85.0526 40.2584C85.3039 40.0379 85.288 39.6653 85.0216 39.4634C83.5017 38.3118 82.3475 36.7198 81.7223 34.8782C81.5659 34.4175 80.9213 34.4176 80.765 34.8782Z"
        fill="#EAEAF3" />
    <path
        d="M71.1464 20.2245C70.7006 21.5383 69.8773 22.6739 68.7931 23.4954C68.6029 23.6395 68.5916 23.9054 68.771 24.0626C69.846 25.005 70.6701 26.2231 71.1346 27.6076C71.2527 27.96 71.7237 27.9599 71.8418 27.6076C72.3061 26.223 73.1305 25.005 74.2051 24.0626C74.3844 23.9053 74.3731 23.6395 74.183 23.4955C73.0987 22.6739 72.2754 21.5383 71.8293 20.2244C71.7178 19.8959 71.2579 19.8959 71.1464 20.2245Z"
        fill="#C3C3E1" />
    <defs>
        <radialGradient
            id="paint0_radial_1382_106052"
            cx="0"
            cy="0"
            r="1"
            gradientUnits="userSpaceOnUse"
            gradientTransform="translate(21.2644 43.8376) scale(41.194)">
            <stop stop-color="#9B643D" />
            <stop offset="0.0679" stop-color="#A9764F" />
            <stop offset="0.1904" stop-color="#BD8F68" />
            <stop offset="0.3265" stop-color="#CDA37C" />
            <stop offset="0.4816" stop-color="#D8B08A" />
            <stop offset="0.6719" stop-color="#DEB993" />
            <stop offset="1" stop-color="#E0BB95" />
        </radialGradient>
    </defs>
</svg>
