<svg width="195" height="104" viewBox="0 0 195 104" fill="none" xmlns="http://www.w3.org/2000/svg">
    <path
        d="M88.2318 103.855C136.961 103.855 176.464 99.8033 176.464 94.805C176.464 89.8068 136.961 85.7549 88.2318 85.7549C39.5027 85.7549 0 89.8068 0 94.805C0 99.8033 39.5027 103.855 88.2318 103.855Z"
        fill="#E1DFDD" />
    <path
        d="M169.026 13.1131L153.976 7.44458C149.312 5.68811 144.155 8.17332 142.456 12.9954L135.405 33.0098L145.143 36.6773C152.741 39.5388 161.143 35.4901 163.911 27.6342L169.026 13.1131Z"
        fill="url(#paint0_linear_41_85734)" />
    <path
        d="M172.244 14.3236L153.976 7.4436C149.312 5.68714 144.155 8.17235 142.456 12.9944L141.386 16.0301L159.232 22.7513C164.823 24.857 171.006 21.8777 173.043 16.097C173.296 15.379 172.938 14.5851 172.244 14.3236Z"
        fill="url(#paint1_linear_41_85734)" />
    <path
        d="M91.442 2.5438L71.9428 2.29176C66.9799 2.22764 62.9062 6.33559 62.8442 11.4673L62.5867 32.7665L91.0721 33.1346L91.442 2.5438Z"
        fill="#AEB0D6" />
    <path
        d="M110.635 15.7695H52.5065C43.2983 15.7695 35.8335 23.4879 35.8335 33.009H143.129C143.129 23.4879 126.557 15.7695 110.635 15.7695Z"
        fill="#FFD590" />
    <path
        d="M39.313 0.873408C38.9308 0.163036 38.146 -0.168958 37.4482 0.0845598L14.7963 8.31271C10.0458 10.0384 12.3481 22.4755 18.3755 20.286C24.403 18.0965 34.3155 14.4958 34.3155 14.4958C40.0106 12.4272 42.248 6.3282 39.313 0.873408Z"
        fill="#C3C3E1" />
    <path
        d="M96.1146 3.79939C95.9817 2.99815 95.3477 2.41602 94.6081 2.41602H70.599C65.5638 2.41602 63.7491 14.9391 70.1377 14.9391C76.5263 14.9391 87.0327 14.9391 87.0327 14.9391C93.0689 14.9391 97.135 9.95167 96.1146 3.79939Z"
        fill="#AEB0D6" />
    <path
        d="M33.091 1.66797L14.6927 8.35108C8.01218 10.7777 9.04447 17.432 13.3383 21.1842C24.1086 30.5957 22.2412 38.2051 22.2412 38.2051L35.5751 33.3615C43.0549 30.6445 46.5935 22.8108 36.4958 13.6168L33.091 1.66797Z"
        fill="#C3C3E1" />
    <path
        d="M140.865 33.0088H74.128C72.4222 33.0088 71.0394 34.4385 71.0394 36.2023V60.7309C71.0394 62.4946 72.4222 63.9244 74.128 63.9244H124.88C135.414 63.9244 143.953 55.0948 143.953 44.2029V36.2023C143.953 34.4386 142.57 33.0088 140.865 33.0088Z"
        fill="url(#paint2_linear_41_85734)" />
    <mask id="mask0_41_85734" style="mask-type: alpha" maskUnits="userSpaceOnUse" x="19" y="33" width="123" height="59">
        <path
            d="M88.17 33.0088C59.4593 33.0088 19.4927 33.0088 19.4927 33.0088V40.7654C19.4927 68.8937 41.5459 91.6961 68.75 91.6961H93.8716C116.429 91.6961 132.235 75.9882 141.286 61.1266C118.758 56.2184 116.881 33.0088 88.17 33.0088Z"
            fill="#C3C3E1" />
    </mask>
    <g mask="url(#mask0_41_85734)">
        <path
            d="M87.7859 120.106H62.067L49.2076 97.0758L62.067 74.0459H87.7859L100.645 97.0758L87.7859 120.106Z"
            fill="#6E6FAC"
            stroke="#8B8CC4"
            stroke-width="7.0671"
            stroke-miterlimit="10" />
        <path
            d="M49.1359 97.0753H23.4171L10.5576 74.0455L23.4171 51.0156H49.1359L61.9953 74.0455L49.1359 97.0753Z"
            fill="#6E6FAC"
            stroke="#8B8CC4"
            stroke-width="7.0671"
            stroke-miterlimit="10" />
        <path
            d="M126.388 97.0753H100.669L87.8093 74.0455L100.669 51.0156H126.388L139.247 74.0455L126.388 97.0753Z"
            fill="#6E6FAC"
            stroke="#8B8CC4"
            stroke-width="7.0671"
            stroke-miterlimit="10" />
        <path
            d="M164.866 74.0138H139.147L126.288 50.984L139.147 27.9541H164.866L177.726 50.984L164.866 74.0138Z"
            fill="#6E6FAC"
            stroke="#8B8CC4"
            stroke-width="7.0671"
            stroke-miterlimit="10" />
        <path
            d="M87.7967 74.046H62.0778L49.2184 51.0162L62.0778 27.9863H87.7967L100.656 51.0162L87.7967 74.046Z"
            fill="#6E6FAC"
            stroke="#8B8CC4"
            stroke-width="7.0671"
            stroke-miterlimit="10" />
        <path
            d="M10.351 74.046H-15.3679L-28.2273 51.0162L-15.3679 27.9863H10.351L23.2104 51.0162L10.351 74.046Z"
            fill="#6E6FAC"
            stroke="#8B8CC4"
            stroke-width="7.0671"
            stroke-miterlimit="10" />
        <path
            d="M126.388 51.0167H100.669L87.8093 27.9869L100.669 4.95703H126.388L139.247 27.9869L126.388 51.0167Z"
            fill="#6E6FAC"
            stroke="#8B8CC4"
            stroke-width="7.0671"
            stroke-miterlimit="10" />
        <path
            d="M49.1467 51.0167H23.4278L10.5684 27.9869L23.4278 4.95703H49.1467L62.0061 27.9869L49.1467 51.0167Z"
            fill="#6E6FAC"
            stroke="#8B8CC4"
            stroke-width="7.0671"
            stroke-miterlimit="10" />
    </g>
    <path
        d="M141.286 61.1266C118.758 56.2184 116.881 33.0088 88.17 33.0088"
        stroke="#8B8CC4"
        stroke-width="11.2214"
        stroke-miterlimit="10"
        stroke-linecap="round" />
    <path
        d="M88.17 33.0088C59.4593 33.0088 19.4927 33.0088 19.4927 33.0088"
        stroke="#8B8CC4"
        stroke-width="11.2214"
        stroke-miterlimit="10"
        stroke-linecap="round" />
    <path
        d="M148.301 60.9011C148.301 53.2762 145.877 52.1556 143.797 52.7132C141.684 53.2794 139.686 56.6345 139.686 56.6345L124.165 33.418C124.165 33.418 143.001 25.4998 153.582 30.6749C164.9 36.2103 167.811 46.6667 167.811 58.9881L148.301 60.9011Z"
        fill="#C3C3E1" />
    <path
        d="M128.651 19.896C131.365 14.3781 109.103 13.8575 108.096 15.5408C105.535 19.8216 106.954 24.3889 100.21 24.295C93.8835 24.207 92.3897 29.206 92.3897 29.206C92.3897 29.206 96.6544 31.2657 99.7109 38.5256C104.894 50.8366 123.341 49.1862 124.165 33.4167C124.401 28.9082 126.473 24.325 128.651 19.896Z"
        fill="#C3C3E1" />
    <path
        d="M129.489 11.7183L115.928 11.2819C110.967 11.1223 106.82 15.1512 106.666 20.2808L106.568 23.51L123.676 24.0604C128.52 24.2163 132.569 20.282 132.72 15.2731C132.777 13.3691 131.331 11.7776 129.489 11.7183Z"
        fill="#C3C3E1" />
    <path
        d="M168.596 38.6191H167.676C156.975 38.6191 148.301 47.5882 148.301 58.6521V58.6521C148.301 69.716 156.975 78.6851 167.676 78.6851H181.731C188.745 78.6851 194.431 72.8063 194.431 65.5544V65.3317C194.431 50.5788 182.864 38.6191 168.596 38.6191Z"
        fill="#C3C3E1" />
    <path
        opacity="0.5"
        d="M177.543 49.4805C179.375 50.5865 188.354 48.052 188.354 48.052L185.943 45.5072C185.943 45.5072 180.624 47.546 177.775 48.4146C177.47 48.4421 177.244 48.7199 177.271 49.0352C177.287 49.2266 177.395 49.3894 177.543 49.4805Z"
        fill="#8B8CC4" />
    <path
        d="M180.326 65.6425C181.107 63.4271 180.734 61.2524 179.493 60.7852C178.253 60.318 176.615 61.7352 175.834 63.9506C175.054 66.166 175.426 68.3407 176.667 68.8079C177.907 69.2751 179.545 67.8579 180.326 65.6425Z"
        fill="#605D5A" />
    <defs>
        <linearGradient
            id="paint0_linear_41_85734"
            x1="162.909"
            y1="12.1214"
            x2="123.674"
            y2="44.4115"
            gradientUnits="userSpaceOnUse">
            <stop stop-color="#C3C3E1" />
            <stop offset="1" stop-color="#8B8CC4" />
        </linearGradient>
        <linearGradient
            id="paint1_linear_41_85734"
            x1="161.899"
            y1="10.9158"
            x2="124.026"
            y2="42.0856"
            gradientUnits="userSpaceOnUse">
            <stop stop-color="#C3C3E1" />
            <stop offset="1" stop-color="#8B8CC4" />
        </linearGradient>
        <linearGradient
            id="paint2_linear_41_85734"
            x1="131.819"
            y1="35.8482"
            x2="101.956"
            y2="47.2983"
            gradientUnits="userSpaceOnUse">
            <stop stop-color="#C3C3E1" />
            <stop offset="1" stop-color="#8B8CC4" />
        </linearGradient>
    </defs>
</svg>
